<svg width="240" height="48" viewBox="0 0 538 122" xmlns="http://www.w3.org/2000/svg" class="build-client-components-Navigationbar-Navigationbar__logo">
    <g fill="none">
        <path fill="#000" d="M151.468 41.713h-26.574v42.58h26.757v-2.8h-23.715v-17.82h22.62v-2.74h-22.62V44.39h23.533v-2.677zm27.022 37.105l-6.995-17.397c-.426-.91-.79-1.824-1.156-2.858l-6.814-16.85h-3.285v.426l17.58 42.276h1.278l17.458-42.276v-.425h-3.224l-7.97 19.708-6.81 17.398h-.062zm55.482-37.105h-26.575v42.58h26.757v-2.8h-23.716v-17.82h22.62v-2.74h-22.62V44.39h23.534v-2.677zm30.07 25.973l13.26 16.12v.487h-3.406L260.88 68.05h-12.897v16.243h-3.102v-42.58h16.364c8.272 0 14.295 5.413 14.295 13.26 0 7.056-4.93 11.74-11.498 12.713zm-16.12-2.31h13.322c6.204 0 11.314-3.955 11.314-10.464 0-6.387-4.988-10.462-11.314-10.462h-13.322v20.925zm69.715-23.663h-27.913v42.58h28.278v-6.448h-21.16v-12.41h19.76V59.17h-19.76V47.917h20.795v-6.204zm9.856 30.475c.182 8.942 8.88 13.078 17.214 12.895 7.97 0 16.79-3.528 16.79-12.895 0-9.794-7.91-11.497-16.547-12.47-4.927-.67-9.732-1.278-9.732-6.083s5.05-6.387 8.942-6.387c4.197 0 9.002 1.46 9.306 6.022h6.692c-.183-8.698-7.847-12.348-15.937-12.348-8.272 0-15.997 4.136-15.997 12.895 0 8.516 7.725 11.01 15.51 11.68 4.928.486 10.707 1.034 10.707 6.63 0 5.292-5.353 6.63-9.854 6.63-4.623 0-9.855-1.764-10.16-6.57h-6.933zm53.41-24.21v36.315h6.933V47.978h12.35v-6.265h-31.632v6.265h12.348zm42.276 4.495l-13.93 31.82h-7.42v-.913l19.707-41.972h3.285L444.41 83.38v.913h-7.362l-13.87-31.82zm35.22-4.495v36.315h6.935V47.978h12.35v-6.265h-31.632v6.265H458.4zm57.235-6.265h-27.913v42.58H516v-6.448h-21.16v-12.41h19.76V59.17h-19.76V47.917h20.795v-6.204z"></path>
        <g stroke-linecap="round" stroke-width="5" stroke="#A53860" stroke-linejoin="round">
            <path d="M50.783 43.488V24.955h32.994V96H67.28"></path>
            <path d="M34.218 62.365V43.832h32.994V96H50.715"></path>
            <path d="M33.957 78.897v17.077H16.11v-33.65h34.525v33.65"></path>
        </g>
    </g>
</svg>